<svg width="137" height="24" viewBox="0 0 137 24" fill="none" xmlns="http://www.w3.org/2000/svg">
<path d="M8.92898 1.18182V23H6.28693V3.9517H6.15909L0.832386 7.48864V4.80398L6.28693 1.18182H8.92898ZM22.3203 23.2983C20.7152 23.2983 19.348 22.8615 18.2188 21.9879C17.0895 21.1072 16.2266 19.8324 15.63 18.1634C15.0334 16.4872 14.7351 14.4631 14.7351 12.0909C14.7351 9.73295 15.0334 7.71946 15.63 6.05043C16.2337 4.37429 17.1001 3.09588 18.2294 2.2152C19.3658 1.32741 20.7294 0.883522 22.3203 0.883522C23.9112 0.883522 25.2713 1.32741 26.4006 2.2152C27.5369 3.09588 28.4034 4.37429 29 6.05043C29.6037 7.71946 29.9055 9.73295 29.9055 12.0909C29.9055 14.4631 29.6072 16.4872 29.0107 18.1634C28.4141 19.8324 27.5511 21.1072 26.4219 21.9879C25.2926 22.8615 23.9254 23.2983 22.3203 23.2983ZM22.3203 20.9545C23.9112 20.9545 25.147 20.1875 26.0277 18.6534C26.9084 17.1193 27.3487 14.9318 27.3487 12.0909C27.3487 10.2017 27.1463 8.59304 26.7415 7.26491C26.3438 5.93679 25.7685 4.92472 25.0156 4.22869C24.2699 3.53267 23.3714 3.18466 22.3203 3.18466C20.7436 3.18466 19.5114 3.96236 18.6236 5.51776C17.7358 7.06605 17.2919 9.2571 17.2919 12.0909C17.2919 13.9801 17.4908 15.5852 17.8885 16.9062C18.2862 18.2273 18.858 19.2322 19.6037 19.9212C20.3565 20.6101 21.2621 20.9545 22.3203 20.9545ZM41.0703 23.2983C39.4652 23.2983 38.098 22.8615 36.9688 21.9879C35.8395 21.1072 34.9766 19.8324 34.38 18.1634C33.7834 16.4872 33.4851 14.4631 33.4851 12.0909C33.4851 9.73295 33.7834 7.71946 34.38 6.05043C34.9837 4.37429 35.8501 3.09588 36.9794 2.2152C38.1158 1.32741 39.4794 0.883522 41.0703 0.883522C42.6612 0.883522 44.0213 1.32741 45.1506 2.2152C46.2869 3.09588 47.1534 4.37429 47.75 6.05043C48.3537 7.71946 48.6555 9.73295 48.6555 12.0909C48.6555 14.4631 48.3572 16.4872 47.7607 18.1634C47.1641 19.8324 46.3011 21.1072 45.1719 21.9879C44.0426 22.8615 42.6754 23.2983 41.0703 23.2983ZM41.0703 20.9545C42.6612 20.9545 43.897 20.1875 44.7777 18.6534C45.6584 17.1193 46.0987 14.9318 46.0987 12.0909C46.0987 10.2017 45.8963 8.59304 45.4915 7.26491C45.0938 5.93679 44.5185 4.92472 43.7656 4.22869C43.0199 3.53267 42.1214 3.18466 41.0703 3.18466C39.4936 3.18466 38.2614 3.96236 37.3736 5.51776C36.4858 7.06605 36.0419 9.2571 36.0419 12.0909C36.0419 13.9801 36.2408 15.5852 36.6385 16.9062C37.0362 18.2273 37.608 19.2322 38.3537 19.9212C39.1065 20.6101 40.0121 20.9545 41.0703 20.9545ZM54.6214 6.63636L58.5419 13.3267L62.4624 6.63636H65.3601L60.076 14.8182L65.3601 23H62.4624L58.5419 16.6506L54.6214 23H51.7237L56.9226 14.8182L51.7237 6.63636H54.6214ZM76.0215 23H69.2885V1.18182H76.3198C78.4363 1.18182 80.2473 1.61861 81.753 2.49219C83.2587 3.35866 84.4128 4.60511 85.2154 6.23153C86.0179 7.85085 86.4192 9.78977 86.4192 12.0483C86.4192 14.321 86.0144 16.2777 85.2047 17.9183C84.3951 19.5518 83.2161 20.8089 81.6678 21.6896C80.1195 22.5632 78.2374 23 76.0215 23ZM71.9306 20.6562H75.851C77.655 20.6562 79.15 20.3082 80.3361 19.6122C81.5222 18.9162 82.4064 17.9254 82.9888 16.6399C83.5712 15.3544 83.8624 13.8239 83.8624 12.0483C83.8624 10.2869 83.5748 8.7706 82.9995 7.49929C82.4242 6.22088 81.5648 5.24077 80.4213 4.55895C79.2779 3.87003 77.8539 3.52557 76.1493 3.52557H71.9306V20.6562ZM97.3709 23.3409C95.7942 23.3409 94.4341 22.9929 93.2907 22.2969C92.1543 21.5938 91.2772 20.6136 90.6593 19.3565C90.0485 18.0923 89.7431 16.6222 89.7431 14.946C89.7431 13.2699 90.0485 11.7926 90.6593 10.5142C91.2772 9.22869 92.1365 8.22727 93.2374 7.50994C94.3453 6.78551 95.638 6.4233 97.1152 6.4233C97.9675 6.4233 98.8091 6.56534 99.6401 6.84943C100.471 7.13352 101.227 7.59517 101.909 8.23438C102.591 8.86648 103.134 9.70455 103.539 10.7486C103.944 11.7926 104.146 13.0781 104.146 14.6051V15.6705H91.5328V13.4972H101.59C101.59 12.5739 101.405 11.75 101.036 11.0256C100.673 10.3011 100.155 9.7294 99.4803 9.31037C98.8127 8.89133 98.0243 8.68182 97.1152 8.68182C96.1138 8.68182 95.2473 8.9304 94.5158 9.42756C93.7914 9.91761 93.2338 10.5568 92.8432 11.3452C92.4526 12.1335 92.2573 12.9787 92.2573 13.8807V15.3295C92.2573 16.5653 92.4703 17.6129 92.8965 18.4723C93.3297 19.3246 93.9299 19.9744 94.6969 20.4219C95.464 20.8622 96.3553 21.0824 97.3709 21.0824C98.0314 21.0824 98.628 20.9901 99.1607 20.8054C99.7005 20.6136 100.166 20.3295 100.556 19.9531C100.947 19.5696 101.249 19.0937 101.462 18.5256L103.891 19.2074C103.635 20.0312 103.205 20.7557 102.602 21.3807C101.998 21.9986 101.252 22.4815 100.365 22.8295C99.4767 23.1705 98.4789 23.3409 97.3709 23.3409ZM120.854 6.63636L114.803 23H112.246L106.195 6.63636H108.922L113.439 19.6761H113.609L118.126 6.63636H120.854ZM135.763 10.3011L133.505 10.9403C133.363 10.5639 133.153 10.1982 132.876 9.84304C132.606 9.48082 132.237 9.18253 131.768 8.94815C131.299 8.71378 130.699 8.59659 129.968 8.59659C128.966 8.59659 128.132 8.82741 127.464 9.28906C126.804 9.74361 126.473 10.3224 126.473 11.0256C126.473 11.6506 126.701 12.1442 127.155 12.5064C127.61 12.8686 128.32 13.1705 129.286 13.4119L131.715 14.0085C133.178 14.3636 134.268 14.907 134.985 15.6385C135.703 16.3629 136.061 17.2969 136.061 18.4403C136.061 19.3778 135.792 20.2159 135.252 20.9545C134.719 21.6932 133.973 22.2756 133.015 22.7017C132.056 23.1278 130.941 23.3409 129.669 23.3409C128 23.3409 126.619 22.9787 125.525 22.2543C124.431 21.5298 123.739 20.4716 123.448 19.0795L125.834 18.483C126.061 19.3636 126.491 20.0241 127.123 20.4645C127.762 20.9048 128.597 21.125 129.627 21.125C130.799 21.125 131.729 20.8764 132.418 20.3793C133.114 19.875 133.462 19.2713 133.462 18.5682C133.462 18 133.263 17.5241 132.865 17.1406C132.468 16.75 131.857 16.4588 131.033 16.267L128.306 15.6278C126.807 15.2727 125.706 14.7223 125.003 13.9766C124.307 13.2237 123.959 12.2827 123.959 11.1534C123.959 10.2301 124.218 9.41335 124.737 8.70312C125.262 7.9929 125.976 7.43537 126.878 7.03054C127.787 6.62571 128.817 6.4233 129.968 6.4233C131.587 6.4233 132.858 6.77841 133.782 7.48864C134.712 8.19886 135.373 9.13636 135.763 10.3011Z" fill="white"/>
</svg>
