<svg width="140" height="33" viewBox="0 0 140 33" fill="none" xmlns="http://www.w3.org/2000/svg">
<path d="M107.262 11.0389H104.367C104.037 11.0389 103.706 10.8989 103.471 10.6413L102.295 9.32533C101.942 8.95013 101.377 8.89973 100.979 9.25253C100.957 9.27493 100.934 9.29733 100.906 9.32533L99.8928 10.4565C99.5624 10.8317 99.092 11.0445 98.5992 11.0445H82.7232C82.2752 12.3605 81.9728 13.7269 81.8552 15.1157H96.8352C97.0928 15.1157 97.3504 14.9981 97.5408 14.8077L98.9296 13.3517C99.092 13.1613 99.3496 13.0717 99.5848 13.0717H99.6296C99.8872 13.0717 100.145 13.1893 100.335 13.3797L101.511 14.6957C101.724 14.9533 102.054 15.0933 102.407 15.0933H114.638C114.52 13.7045 114.24 12.3437 113.77 11.0221H107.257V11.0389H107.262ZM90.944 23.6445C91.2016 23.6445 91.4592 23.5269 91.6496 23.3365L93.0384 21.8805C93.2008 21.6901 93.464 21.6005 93.6992 21.6005H93.772C94.0296 21.6005 94.2872 21.7181 94.4776 21.9085L95.6536 23.2245C95.8888 23.4821 96.1968 23.6221 96.5496 23.6221H113.12C113.753 22.3285 114.201 20.9397 114.486 19.5285H98.5656C98.2352 19.5285 97.9048 19.3885 97.6976 19.1309L96.5216 17.8149C96.3592 17.6245 96.096 17.5069 95.816 17.5069C95.5584 17.5069 95.3008 17.6245 95.1328 17.8149L94.1192 18.9461C93.7888 19.3213 93.3184 19.5341 92.8032 19.5341H82.124C82.3816 20.9453 82.852 22.3341 83.4624 23.6501H90.944V23.6445ZM102.698 6.59253C102.956 6.59253 103.214 6.47493 103.404 6.28453L104.793 4.82853C104.955 4.63813 105.218 4.54853 105.454 4.54853H105.526C105.784 4.54853 106.042 4.66613 106.21 4.85653L107.386 6.17253C107.621 6.43013 107.929 6.57013 108.276 6.57013H111.429C105.974 -0.698667 95.6704 -2.15467 88.4072 3.29973C87.164 4.24053 86.0552 5.32133 85.1368 6.57013H102.704L102.698 6.59253ZM96.3536 27.7101H92.0472C91.7168 27.7101 91.3864 27.5701 91.1792 27.3125L90.0032 25.9965C89.6504 25.6213 89.0624 25.5709 88.6872 25.9237C88.6648 25.9461 88.6424 25.9685 88.6144 25.9965L87.6008 27.1501C87.2704 27.5253 86.8 27.7381 86.3072 27.7381H86.2344C92.4168 34.3685 102.838 34.7437 109.469 28.5613C109.749 28.3037 110.034 28.0181 110.292 27.7381L96.3536 27.7101ZM25.5136 31.8765L22.176 23.7397H7.2184L3.8808 31.8765H0L14.672 1.11573L29.3944 31.8765H25.5136ZM8.4896 20.6541H20.8824L14.6496 7.53333L8.4896 20.6541ZM34.7368 31.8765V1.11573H43.2992C50.0024 1.11573 53.508 4.17333 53.508 9.95813C53.508 15.5301 49.7672 18.7277 43.2544 18.7277H38.3376V31.8485H34.7368V31.8765ZM38.36 15.5301H42.448C47.6224 15.5301 49.9016 13.8389 49.9016 9.95813C49.9016 5.95973 47.5944 4.31333 42.4704 4.31333H38.3768L38.36 15.5301ZM66.6232 4.38053H56.0168V1.08773H80.8528V4.38053H70.2464V31.8709H66.6456V4.38053H66.6232ZM119.728 26.2541L122.83 24.1373L123.066 24.6301C124.97 28.1133 127.064 29.4965 130.239 29.4965C133.767 29.4965 136.237 27.0493 136.237 24.1093C136.237 21.3317 134.848 19.4557 129.276 17.1485C122.881 14.4885 120.714 11.7613 120.714 7.83573C120.714 3.57973 124.051 0.242134 129.836 0.242134C134.092 0.242134 137.01 2.05093 138.656 5.01333L136.142 6.75493L135.414 6.56453C134.098 4.52613 132.496 3.35013 129.769 3.35013C126.431 3.35013 124.477 5.23173 124.477 7.74613C124.477 10.0981 125.726 11.4365 131.18 13.9285C138.258 17.1485 140 19.7861 140 24.0645C140 28.7237 136.002 32.6717 130.312 32.6717C125.513 32.7221 122.22 30.8853 119.728 26.2541Z" fill="white"/>
</svg>
